<?xml version="1.0" encoding="UTF-8" standalone="no"?>
<!-- Created with Inkscape (http://www.inkscape.org/) -->

<svg
   version="1.1"
   id="svg1"
   width="604.79999"
   height="451.20001"
   viewBox="0 0 604.79999 451.20001"
   xmlns="http://www.w3.org/2000/svg"
   xmlns:svg="http://www.w3.org/2000/svg">
  <defs
     id="defs1">
    <clipPath
       clipPathUnits="userSpaceOnUse"
       id="clipPath3">
      <path
         d="m 7.2,7.2 h 439.2 v 324 H 7.2 Z"
         id="path3" />
    </clipPath>
    <clipPath
       clipPathUnits="userSpaceOnUse"
       id="clipPath5">
      <path
         d="m 7.2,7.2 h 439.2 v 324 H 7.2 Z"
         id="path5" />
    </clipPath>
    <clipPath
       clipPathUnits="userSpaceOnUse"
       id="clipPath7">
      <path
         d="m 7.2,7.2 h 439.2 v 324 H 7.2 Z"
         id="path7" />
    </clipPath>
  </defs>
  <g
     id="g1">
    <path
       id="path1"
       d="M 0,0 H 453.6 V 338.4 H 0 Z"
       style="fill:#ffffff;fill-opacity:1;fill-rule:nonzero;stroke:none"
       transform="matrix(1.3333333,0,0,-1.3333333,0,451.2)" />
    <path
       id="path2"
       d="m 27.163636,39.798353 13.768025,0.954083 13.768026,-1.085746 13.768025,-1.228771 13.768025,-0.255783 13.768025,0.211996 13.768028,0.335592 13.76802,0.08416 13.76803,1.041835 13.76802,0.486215 13.76803,-1.926512 13.76802,39.258564 13.76803,92.100504 13.76802,103.05511 13.76803,22.21631 13.76802,1.94931 13.76803,0.66373 13.76802,-0.63564 13.76803,-6.34098 13.76802,-61.93631 13.76803,-73.07415 13.76802,-105.488863 13.76803,-22.991521 13.76802,9.922255 13.76803,1.302272 13.76802,2.55854 13.76803,0.216894 13.76802,-0.320024 13.76803,-0.174759 13.76802,0.05994"
       style="fill:none;stroke:#ff0000;stroke-width:1.5;stroke-linecap:square;stroke-linejoin:round;stroke-miterlimit:10;stroke-dasharray:none;stroke-opacity:1"
       transform="matrix(1.3333333,0,0,-1.3333333,0,451.2)"
       clip-path="url(#clipPath3)" />
    <path
       id="path4"
       d="m 27.163636,39.798353 13.768025,0.502238 13.768026,-0.851187 13.768025,-1.107606 13.768025,-0.04399 13.768025,0.335157 13.768028,0.06112 13.76802,1.161637 13.76803,0.486215 13.76802,-0.728306 13.76803,49.035284 13.76802,101.197565 13.76803,82.98312 13.76802,20.86098 13.76803,3.58171 13.76802,1.41477 13.76803,-0.47354 13.76802,-1.19021 13.76803,-6.34098 13.76802,-23.47516 13.76803,-73.66489 13.76802,-111.539097 13.76803,-55.440953 13.76802,9.245636 13.76803,2.305031 13.76802,2.621732 13.76803,0.605893 13.76802,-0.315718 13.76803,-0.426703 13.76802,0.158511"
       style="fill:none;stroke:#0000ff;stroke-width:1.5;stroke-linecap:square;stroke-linejoin:round;stroke-miterlimit:10;stroke-dasharray:none;stroke-opacity:1"
       transform="matrix(1.3333333,0,0,-1.3333333,0,451.2)"
       clip-path="url(#clipPath5)" />
    <path
       id="path6"
       d="M 27.163636,28.171889 40.931661,58.9795 54.699687,38.918111 l 13.768025,8.422111 13.768025,-15.784734 13.768025,-8.713857 13.768028,29.027653 13.76802,-22.680812 13.76803,6.426758 13.76802,12.29924 13.76803,34.796468 13.76802,106.712802 13.76803,78.94342 13.76802,14.82716 13.76803,9.89716 13.76802,23.38125 13.76803,-32.39618 13.76802,31.24898 13.76803,-11.6717 13.76802,-30.82237 13.76803,-65.18987 13.76802,-124.401381 13.76803,-61.312936 13.76802,19.272269 13.76803,2.951005 13.76802,-15.02115 13.76803,10.458061 13.76802,1.497326 13.76803,-11.506851 13.76802,8.741098"
       style="fill:none;stroke:#0000ff;stroke-width:1.5;stroke-linecap:butt;stroke-linejoin:round;stroke-miterlimit:10;stroke-dasharray:5.55, 2.4;stroke-dashoffset:0;stroke-opacity:1"
       transform="matrix(1.3333333,0,0,-1.3333333,0,451.2)"
       clip-path="url(#clipPath7)" />
    <path
       id="path8"
       d="M 228.83437,140.9625 H 438 c 1.6,0 2.4,0.8 2.4,2.4 v 51.675 c 0,1.6 -0.8,2.4 -2.4,2.4 H 228.83437 c -1.6,0 -2.4,-0.8 -2.4,-2.4 v -51.675 c 0,-1.6 0.8,-2.4 2.4,-2.4 z"
       style="fill:#ffffff;fill-opacity:0.8;fill-rule:nonzero;stroke:#cccccc;stroke-width:1;stroke-linecap:butt;stroke-linejoin:miter;stroke-miterlimit:10;stroke-dasharray:none;stroke-opacity:0.8"
       transform="matrix(1.3333333,0,0,-1.3333333,0,451.2)" />
    <path
       id="path9"
       d="m 231.23437,187.7125 h 12 12"
       style="fill:none;stroke:#ff0000;stroke-width:1.5;stroke-linecap:square;stroke-linejoin:round;stroke-miterlimit:10;stroke-dasharray:none;stroke-opacity:1"
       transform="matrix(1.3333333,0,0,-1.3333333,0,451.2)" />
    <path
       id="path10"
       d=""
       style="fill:#000000;fill-opacity:1;fill-rule:nonzero;stroke:none"
       aria-label="Original"
       transform="matrix(1.3333333,0,0,1.3333333,353.1125,206.51667)" />
    <path
       id="path11"
       d="m 231.23437,170.0875 h 12 12"
       style="fill:none;stroke:#0000ff;stroke-width:1.5;stroke-linecap:square;stroke-linejoin:round;stroke-miterlimit:10;stroke-dasharray:none;stroke-opacity:1"
       transform="matrix(1.3333333,0,0,-1.3333333,0,451.2)" />
    <path
       id="path12"
       d=""
       style="fill:#000000;fill-opacity:1;fill-rule:nonzero;stroke:none"
       aria-label="Processed"
       transform="matrix(1.3333333,0,0,1.3333333,353.1125,230.01667)" />
    <path
       id="path13"
       d="m 231.23437,152.4625 h 12 12"
       style="fill:none;stroke:#0000ff;stroke-width:1.5;stroke-linecap:butt;stroke-linejoin:round;stroke-miterlimit:10;stroke-dasharray:5.55, 2.4;stroke-dashoffset:0;stroke-opacity:1"
       transform="matrix(1.3333333,0,0,-1.3333333,0,451.2)" />
    <path
       id="path14"
       d=""
       style="fill:#000000;fill-opacity:1;fill-rule:nonzero;stroke:none"
       aria-label="Processed, added with noise"
       transform="matrix(1.3333333,0,0,1.3333333,353.1125,253.51667)" />
  </g>
</svg>
