<?xml version="1.0" encoding="UTF-8" standalone="no"?>
<!-- Created with Inkscape (http://www.inkscape.org/) -->

<svg
   version="1.1"
   id="svg1"
   width="1209.6"
   height="314.88"
   viewBox="0 0 1209.6 314.88"
   xmlns="http://www.w3.org/2000/svg"
   xmlns:svg="http://www.w3.org/2000/svg">
  <defs
     id="defs1">
    <clipPath
       clipPathUnits="userSpaceOnUse"
       id="clipPath3">
      <path
         d="M 7.2,7.2 H 900 V 228.96 H 7.2 Z"
         id="path3" />
    </clipPath>
    <clipPath
       clipPathUnits="userSpaceOnUse"
       id="clipPath5">
      <path
         d="M 7.2,7.2 H 900 V 228.96 H 7.2 Z"
         id="path5" />
    </clipPath>
    <clipPath
       clipPathUnits="userSpaceOnUse"
       id="clipPath7">
      <path
         d="M 7.2,7.2 H 900 V 228.96 H 7.2 Z"
         id="path7" />
    </clipPath>
    <clipPath
       clipPathUnits="userSpaceOnUse"
       id="clipPath9">
      <path
         d="M 7.2,7.2 H 900 V 228.96 H 7.2 Z"
         id="path9" />
    </clipPath>
  </defs>
  <g
     id="g1">
    <path
       id="path1"
       d="M 0,0 H 907.2 V 236.16 H 0 Z"
       style="fill:#ffffff;fill-opacity:1;fill-rule:nonzero;stroke:none"
       transform="matrix(1.3333333,0,0,-1.3333333,0,314.88)" />
    <path
       id="path2"
       d="m 47.781818,82.717695 57.974022,5.878874 57.97403,12.516311 57.97403,73.20146 57.97402,44.56566 57.97403,-7.58564 57.97402,-24.65335 57.97403,-28.44616 57.97403,-2.84462 57.97402,-37.92821 57.97403,18.96411 57.97402,-18.96411 57.97403,-30.911503 57.97403,-14.602364 57.97402,-2.086052"
       style="fill:none;stroke:#ff0000;stroke-width:1.5;stroke-linecap:square;stroke-linejoin:round;stroke-miterlimit:10;stroke-dasharray:none;stroke-opacity:1"
       transform="matrix(1.3333333,0,0,-1.3333333,0,314.88)"
       clip-path="url(#clipPath3)" />
    <path
       id="path4"
       d="m 47.781818,42.134501 57.974022,-0.758564 57.97403,0.568923 57.97403,7.775285 57.97402,1.70677 57.97403,0.379282 57.97402,-3.982463 57.97403,-1.70677 57.97403,1.137847 57.97402,-3.982463 57.97403,2.275693 57.97402,-2.465334 57.97403,-1.137847 57.97403,-0.948205 57.97402,-1.517129"
       style="fill:none;stroke:#0000ff;stroke-width:1.5;stroke-linecap:square;stroke-linejoin:round;stroke-miterlimit:10;stroke-dasharray:none;stroke-opacity:1"
       transform="matrix(1.3333333,0,0,-1.3333333,0,314.88)"
       clip-path="url(#clipPath5)" />
    <path
       id="path6"
       d="m 47.781818,25.179336 57.974022,2.304729 57.97403,4.906843 57.97403,28.697596 57.97402,17.471334 57.97403,-2.973844 L 395.62597,65.921 453.6,54.769085 l 57.97403,-1.115192 57.97402,-14.86922 57.97403,7.43461 57.97402,-7.43461 57.97403,-12.118415 57.97403,-5.72465 57.97402,-0.817807"
       style="fill:none;stroke:#ff0000;stroke-width:1.5;stroke-linecap:butt;stroke-linejoin:round;stroke-miterlimit:10;stroke-dasharray:5.55, 2.4;stroke-dashoffset:0;stroke-opacity:1"
       transform="matrix(1.3333333,0,0,-1.3333333,0,314.88)"
       clip-path="url(#clipPath7)" />
    <path
       id="path8"
       d="m 47.781818,30.498888 57.974022,-3.776825 57.97403,2.832619 57.97403,38.712458 57.97402,8.497857 57.97403,1.888413 L 395.62597,58.825077 453.6,50.327221 511.57403,55.992458 569.54805,36.164126 627.52208,47.494602 685.4961,35.21992 743.47013,29.554682 801.44416,24.83365 859.41818,17.28"
       style="fill:none;stroke:#0000ff;stroke-width:1.5;stroke-linecap:butt;stroke-linejoin:round;stroke-miterlimit:10;stroke-dasharray:5.55, 2.4;stroke-dashoffset:0;stroke-opacity:1"
       transform="matrix(1.3333333,0,0,-1.3333333,0,314.88)"
       clip-path="url(#clipPath9)" />
    <path
       id="path10"
       d="M 739.84375,128.8975 H 889.5 c 2,0 3,1 3,3 V 218.46 c 0,2 -1,3 -3,3 H 739.84375 c -2,0 -3,-1 -3,-3 v -86.5625 c 0,-2 1,-3 3,-3 z"
       style="fill:#ffffff;fill-opacity:0.8;fill-rule:nonzero;stroke:#cccccc;stroke-width:1;stroke-linecap:butt;stroke-linejoin:miter;stroke-miterlimit:10;stroke-dasharray:none;stroke-opacity:0.8"
       transform="matrix(1.3333333,0,0,-1.3333333,0,314.88)" />
    <path
       id="path11"
       d="m 742.84375,209.31937 h 15 15"
       style="fill:none;stroke:#ff0000;stroke-width:1.5;stroke-linecap:square;stroke-linejoin:round;stroke-miterlimit:10;stroke-dasharray:none;stroke-opacity:1"
       transform="matrix(1.3333333,0,0,-1.3333333,0,314.88)" />
    <path
       id="path12"
       d=""
       style="fill:#000000;fill-opacity:1;fill-rule:nonzero;stroke:none"
       aria-label="Q"
       transform="matrix(1.3333333,0,0,1.3333333,1046.4583,42.7875)" />
    <path
       id="path13"
       d="m 742.84375,187.30375 h 15 15"
       style="fill:none;stroke:#0000ff;stroke-width:1.5;stroke-linecap:square;stroke-linejoin:round;stroke-miterlimit:10;stroke-dasharray:none;stroke-opacity:1"
       transform="matrix(1.3333333,0,0,-1.3333333,0,314.88)" />
    <path
       id="path14"
       d=""
       style="fill:#000000;fill-opacity:1;fill-rule:nonzero;stroke:none"
       aria-label="C"
       transform="matrix(1.3333333,0,0,1.3333333,1046.4583,72.141667)" />
    <path
       id="path15"
       d="m 742.84375,165.28812 h 15 15"
       style="fill:none;stroke:#ff0000;stroke-width:1.5;stroke-linecap:butt;stroke-linejoin:round;stroke-miterlimit:10;stroke-dasharray:5.55, 2.4;stroke-dashoffset:0;stroke-opacity:1"
       transform="matrix(1.3333333,0,0,-1.3333333,0,314.88)" />
    <path
       id="path16"
       d=""
       style="fill:#000000;fill-opacity:1;fill-rule:nonzero;stroke:none"
       aria-label="Normalized Q"
       transform="matrix(1.3333333,0,0,1.3333333,1046.4583,101.49583)" />
    <path
       id="path17"
       d="m 742.84375,143.2725 h 15 15"
       style="fill:none;stroke:#0000ff;stroke-width:1.5;stroke-linecap:butt;stroke-linejoin:round;stroke-miterlimit:10;stroke-dasharray:5.55, 2.4;stroke-dashoffset:0;stroke-opacity:1"
       transform="matrix(1.3333333,0,0,-1.3333333,0,314.88)" />
    <path
       id="path18"
       d=""
       style="fill:#000000;fill-opacity:1;fill-rule:nonzero;stroke:none"
       aria-label="Normalized C"
       transform="matrix(1.3333333,0,0,1.3333333,1046.4583,130.85)" />
  </g>
</svg>
