<?xml version="1.0" encoding="UTF-8" standalone="no"?>
<!-- Created with Inkscape (http://www.inkscape.org/) -->

<svg
   version="1.1"
   id="svg1"
   width="512.73334"
   height="140.85333"
   viewBox="0 0 512.73334 140.85333"
   xmlns="http://www.w3.org/2000/svg"
   xmlns:svg="http://www.w3.org/2000/svg">
  <defs
     id="defs1">
    <clipPath
       clipPathUnits="userSpaceOnUse"
       id="clipPath3">
      <path
         d="M 7.2,7.2 H 377.35 V 98.44 H 7.2 Z"
         id="path3" />
    </clipPath>
    <clipPath
       clipPathUnits="userSpaceOnUse"
       id="clipPath5">
      <path
         d="M 7.2,7.2 H 377.35 V 98.44 H 7.2 Z"
         id="path5" />
    </clipPath>
  </defs>
  <g
     id="g1">
    <path
       id="path1"
       d="M 0,0 H 384.55 V 105.64 H 0 Z"
       style="fill:#ffffff;fill-opacity:1;fill-rule:nonzero;stroke:none"
       transform="matrix(1.3333333,0,0,-1.3333333,0,140.85333)" />
    <path
       id="path2"
       d="m 24.025,52.82 2.827731,7.512329 2.827731,7.263846 2.827731,6.775101 2.827731,6.062258 2.827731,5.148896 2.827732,4.065227 2.827731,2.847093 2.827731,1.534787 2.827731,0.171717 2.827731,-1.197035 2.827731,-2.526193 2.827731,-3.771791 2.827731,-4.892633 2.827731,-5.851642 2.827731,-6.6171 2.827731,-7.163686 2.827732,-7.473322 2.827731,-7.535765 2.827731,-7.348952 2.827731,-6.919059 2.827731,-6.260309 2.827731,-5.394488 2.827731,-4.350236 2.827731,-3.162093 2.827731,-1.869358 2.827731,-0.514793 2.827732,0.856802 2.82773,2.200055 2.82773,3.470539 2.82773,4.626229 2.82773,5.628898 2.82773,6.445384 2.82774,7.048678 2.82773,7.418824 2.82773,7.543584 2.82773,7.418824 2.82773,7.048678 2.82773,6.445384 2.82773,5.628898 2.82773,4.626229 2.82773,3.470539 2.82774,2.200055 2.82773,0.856802 2.82773,-0.514793 2.82773,-1.869358 2.82773,-3.162093 2.82773,-4.350236 2.82773,-5.394488 2.82773,-6.260309 2.82773,-6.919059 2.82774,-7.348952 2.82773,-7.535765 2.82773,-7.473322 2.82773,-7.163686 2.82773,-6.6171 2.82773,-5.851642 2.82773,-4.892633 2.82773,-3.771791 2.82773,-2.526193 2.82774,-1.197035 2.82773,0.171717 2.82773,1.534787 2.82773,2.847093 2.82773,4.065227 2.82773,5.148896 2.82773,6.062258 2.82773,6.775101 2.82773,7.263846 2.82774,7.512329"
       style="fill:none;stroke:#ff0000;stroke-width:1.5;stroke-linecap:square;stroke-linejoin:round;stroke-miterlimit:10;stroke-dasharray:none;stroke-opacity:1"
       transform="matrix(1.3333333,0,0,-1.3333333,0,140.85333)"
       clip-path="url(#clipPath3)" />
    <path
       id="path4"
       d="m 24.025,52.82 2.827731,5.250795 2.827731,5.166308 2.827731,4.998693 2.827731,4.750647 2.827731,4.426161 2.827732,4.030457 2.827731,3.569902 2.827731,3.051904 2.827731,2.484802 2.827731,1.877717 2.827731,1.240419 2.827731,0.583163 2.827731,-0.08348 2.827731,-0.748774 2.827731,-1.402022 2.827731,-2.032712 2.827732,-2.630694 2.827731,-3.186347 2.827731,-3.690732 2.827731,-4.13573 2.827731,-4.514184 2.827731,-4.820002 2.827731,-5.048265 2.827731,-5.195299 2.827731,-5.25874 2.827731,-5.237564 2.827732,-5.132114 2.82773,-4.944088 2.82773,-4.676508 2.82773,-4.333682 2.82773,-3.921126 2.82773,-3.445476 2.82774,-2.914389 2.82773,-2.336407 2.82773,-1.720831 2.82773,-1.077567 2.82773,-0.416965 2.82773,0.250347 2.82773,0.91363 2.82773,1.562213 2.82773,2.18566 2.82774,2.773938 2.82773,3.317582 2.82773,3.807846 2.82773,4.236839 2.82773,4.597661 2.82773,4.884504 2.82773,5.092754 2.82773,5.219059 2.82773,5.261388 2.82774,5.219059 2.82773,5.092754 2.82773,4.884504 2.82773,4.597661 2.82773,4.236839 2.82773,3.807846 2.82773,3.317582 2.82773,2.773938 2.82773,2.18566 2.82774,1.562213 2.82773,0.91363 2.82773,0.250347 2.82773,-0.416965 2.82773,-1.077567 2.82773,-1.720831 2.82773,-2.336407 2.82773,-2.914389 2.82773,-3.445476 2.82774,-3.921126 2.82773,-4.333682 2.82773,-4.676508 2.82773,-4.944088 2.82773,-5.132114 2.82773,-5.237564 2.82773,-5.25874 2.82773,-5.195299 2.82773,-5.048265 2.82774,-4.820002 2.82773,-4.514184 2.82773,-4.13573 2.82773,-3.690732 2.82773,-3.186347 2.82773,-2.630694 2.82773,-2.032712 2.82773,-1.402022 2.82773,-0.748774 2.82773,-0.08348 2.82774,0.583163 2.82773,1.240419 2.82773,1.877717 2.82773,2.484802 2.82773,3.051904 2.82773,3.569902 2.82773,4.030457 2.82773,4.426161 2.82773,4.750647 2.82774,4.998693 2.82773,5.166308 2.82773,5.250795 h 2.82773 l 2.82773,4.3661 2.82773,4.3661 2.82773,4.366099 2.82773,4.3661 2.82773,4.3661 2.82774,4.3661 2.82773,4.3661 2.82773,4.366099 2.82773,4.3661 h 2.82773 l 2.82773,-4.3661 2.82773,-4.366099 2.82773,-4.3661 2.82773,-4.3661 2.82774,-4.3661 2.82773,-4.3661 2.82773,-4.366099 2.82773,-4.3661 2.82773,-4.3661"
       style="fill:none;stroke:#0000ff;stroke-width:1.5;stroke-linecap:square;stroke-linejoin:round;stroke-miterlimit:10;stroke-dasharray:none;stroke-opacity:1"
       transform="matrix(1.3333333,0,0,-1.3333333,0,140.85333)"
       clip-path="url(#clipPath5)" />
    <path
       id="path6"
       d="m 14.2,12.2 h 39.875 c 1.333333,0 2,0.666667 2,2 v 28.34375 c 0,1.333333 -0.666667,2 -2,2 H 14.2 c -1.333333,0 -2,-0.666667 -2,-2 L 12.2,14.2 c 0,-1.333333 0.666667,-2 2,-2 z"
       style="fill:#ffffff;fill-opacity:0.8;fill-rule:nonzero;stroke:#cccccc;stroke-width:1;stroke-linecap:butt;stroke-linejoin:miter;stroke-miterlimit:10;stroke-dasharray:none;stroke-opacity:0.8"
       transform="matrix(1.3333333,0,0,-1.3333333,0,140.85333)" />
    <path
       id="path7"
       d="m 16.2,36.45 h 10 10"
       style="fill:none;stroke:#ff0000;stroke-width:1.5;stroke-linecap:square;stroke-linejoin:round;stroke-miterlimit:10;stroke-dasharray:none;stroke-opacity:1"
       transform="matrix(1.3333333,0,0,-1.3333333,0,140.85333)" />
    <path
       id="path8"
       d=""
       style="fill:#000000;fill-opacity:1;fill-rule:nonzero;stroke:none"
       aria-label="Q"
       transform="matrix(1.3333333,0,0,1.3333333,58.933333,96.92)" />
    <path
       id="path9"
       d="m 16.2,21.778125 h 10 10"
       style="fill:none;stroke:#0000ff;stroke-width:1.5;stroke-linecap:square;stroke-linejoin:round;stroke-miterlimit:10;stroke-dasharray:none;stroke-opacity:1"
       transform="matrix(1.3333333,0,0,-1.3333333,0,140.85333)" />
    <path
       id="path10"
       d=""
       style="fill:#000000;fill-opacity:1;fill-rule:nonzero;stroke:none"
       aria-label="C"
       transform="matrix(1.3333333,0,0,1.3333333,58.933333,116.4825)" />
  </g>
</svg>
