<?xml version="1.0" encoding="UTF-8" standalone="no"?>
<!-- Created with Inkscape (http://www.inkscape.org/) -->

<svg
   version="1.1"
   id="svg1"
   width="465.60001"
   height="167.03999"
   viewBox="0 0 465.60001 167.03999"
   xmlns="http://www.w3.org/2000/svg"
   xmlns:svg="http://www.w3.org/2000/svg">
  <defs
     id="defs1">
    <clipPath
       clipPathUnits="userSpaceOnUse"
       id="clipPath3">
      <path
         d="M 7.2,7.2 H 342 V 118.08 H 7.2 Z"
         id="path3" />
    </clipPath>
    <clipPath
       clipPathUnits="userSpaceOnUse"
       id="clipPath5">
      <path
         d="M 7.2,7.2 H 342 V 118.08 H 7.2 Z"
         id="path5" />
    </clipPath>
    <clipPath
       clipPathUnits="userSpaceOnUse"
       id="clipPath7">
      <path
         d="M 7.2,7.2 H 342 V 118.08 H 7.2 Z"
         id="path7" />
    </clipPath>
  </defs>
  <g
     id="g1">
    <path
       id="path1"
       d="M 0,0 H 349.2 V 125.28 H 0 Z"
       style="fill:#ffffff;fill-opacity:1;fill-rule:nonzero;stroke:none"
       transform="matrix(1.3333333,0,0,-1.3333333,0,167.04)" />
    <path
       id="path2"
       d="m 22.418182,12.24 7.804196,8.53738 7.804195,9.268479 7.804196,10.480474 7.804196,9.234226 7.804196,14.567136 7.804196,8.942942 7.804195,17.177803 7.804196,15.86627 7.804196,-0.77476 7.804196,4.73584 7.8042,-4.72795 7.80419,-6.779837 7.8042,-0.730182 7.80419,-20.96826 7.8042,-20.296978 7.80419,-20.314934 7.8042,0.576943 7.8042,2.618771 7.80419,8.367171"
       style="fill:none;stroke:#ff0000;stroke-width:1.5;stroke-linecap:square;stroke-linejoin:round;stroke-miterlimit:10;stroke-dasharray:none;stroke-opacity:1"
       transform="matrix(1.3333333,0,0,-1.3333333,0,167.04)"
       clip-path="url(#clipPath3)" />
    <path
       id="path4"
       d="m 22.418182,26.536625 7.804196,4.633773 7.804195,1.46347 7.804196,6.264745 7.804196,-0.993711 7.804196,6.113669 7.804196,0.669911 7.804195,10.949076 7.804196,6.13303 7.804196,5.020392 7.804196,3.226482 7.8042,9.333514 7.80419,5.174809 7.8042,6.12496 7.80419,-1.147044 7.8042,5.48675 7.80419,4.63334 7.8042,3.822149 7.8042,6.88177 7.80419,2.71229 7.8042,-2.20748 7.80419,-2.2307 7.8042,0.0201 7.80419,-8.635802 7.8042,-2.012897 7.8042,-2.646467 7.80419,-8.826622 7.8042,-10.242923 7.80419,-8.23833 7.8042,-7.767052 7.8042,-5.205336 7.80419,-6.616118 7.8042,0.447647 7.80419,-9.887055 7.8042,-7.96054 7.80419,-7.805868 7.8042,-0.968045 7.8042,-4.947422 7.80419,-1.391178 7.8042,-3.121734"
       style="fill:none;stroke:#0000ff;stroke-width:1.5;stroke-linecap:square;stroke-linejoin:round;stroke-miterlimit:10;stroke-dasharray:none;stroke-opacity:1"
       transform="matrix(1.3333333,0,0,-1.3333333,0,167.04)"
       clip-path="url(#clipPath5)" />
    <path
       id="path6"
       d="m 22.418182,12.24 h 7.804196 l 7.804195,8.53738 h 7.804196 l 7.804196,9.268479 h 7.804196 l 7.804196,10.480474 h 7.804195 l 7.804196,9.234226 h 7.804196 l 7.804196,14.567136 h 7.8042 l 7.80419,8.942942 h 7.8042 l 7.80419,17.177803 h 7.8042 l 7.80419,15.86627 h 7.8042 l 7.8042,-0.77476 h 7.80419 l 7.8042,4.73584 h 7.80419 l 7.8042,-4.72795 h 7.80419 l 7.8042,-6.779837 h 7.8042 l 7.80419,-0.730182 h 7.8042 l 7.80419,-20.96826 h 7.8042 l 7.8042,-20.296978 h 7.80419 l 7.8042,-20.314934 h 7.80419 l 7.8042,0.576943 h 7.80419 l 7.8042,2.618771 h 7.8042 l 7.80419,8.367171 h 7.8042"
       style="fill:none;stroke:#ff0000;stroke-width:1.5;stroke-linecap:butt;stroke-linejoin:round;stroke-miterlimit:10;stroke-dasharray:5.55, 2.4;stroke-dashoffset:0;stroke-opacity:1"
       transform="matrix(1.3333333,0,0,-1.3333333,0,167.04)"
       clip-path="url(#clipPath7)" />
    <path
       id="path8"
       d="M 258.6875,66.064375 H 335 c 1.33333,0 2,0.666667 2,2 V 111.08 c 0,1.33333 -0.66667,2 -2,2 h -76.3125 c -1.33333,0 -2,-0.66667 -2,-2 V 68.064375 c 0,-1.333333 0.66667,-2 2,-2 z"
       style="fill:#ffffff;fill-opacity:0.8;fill-rule:nonzero;stroke:#cccccc;stroke-width:1;stroke-linecap:butt;stroke-linejoin:miter;stroke-miterlimit:10;stroke-dasharray:none;stroke-opacity:0.8"
       transform="matrix(1.3333333,0,0,-1.3333333,0,167.04)" />
    <path
       id="path9"
       d="m 260.6875,104.98625 h 10 10"
       style="fill:none;stroke:#ff0000;stroke-width:1.5;stroke-linecap:square;stroke-linejoin:round;stroke-miterlimit:10;stroke-dasharray:none;stroke-opacity:1"
       transform="matrix(1.3333333,0,0,-1.3333333,0,167.04)" />
    <path
       id="path10"
       d=""
       style="fill:#000000;fill-opacity:1;fill-rule:nonzero;stroke:none"
       aria-label="Q"
       transform="matrix(1.3333333,0,0,1.3333333,384.91667,31.725)" />
    <path
       id="path11"
       d="m 260.6875,90.314375 h 10 10"
       style="fill:none;stroke:#0000ff;stroke-width:1.5;stroke-linecap:square;stroke-linejoin:round;stroke-miterlimit:10;stroke-dasharray:none;stroke-opacity:1"
       transform="matrix(1.3333333,0,0,-1.3333333,0,167.04)" />
    <path
       id="path12"
       d=""
       style="fill:#000000;fill-opacity:1;fill-rule:nonzero;stroke:none"
       aria-label="C"
       transform="matrix(1.3333333,0,0,1.3333333,384.91667,51.2875)" />
    <path
       id="path13"
       d="m 260.6875,75.6425 h 10 10"
       style="fill:none;stroke:#ff0000;stroke-width:1.5;stroke-linecap:butt;stroke-linejoin:round;stroke-miterlimit:10;stroke-dasharray:5.55, 2.4;stroke-dashoffset:0;stroke-opacity:1"
       transform="matrix(1.3333333,0,0,-1.3333333,0,167.04)" />
    <path
       id="path14"
       d=""
       style="fill:#000000;fill-opacity:1;fill-rule:nonzero;stroke:none"
       aria-label="Scaled Q"
       transform="matrix(1.3333333,0,0,1.3333333,384.91667,70.85)" />
  </g>
</svg>
